<?xml version="1.0" encoding="UTF-8" standalone="no"?>
<svg
   aria-labelledby="title"
   viewBox="0 0 191 207"
   width="191"
   height="207"
   version="1.1"
   id="svg1"
   sodipodi:docname="svgexport-18.svg"
   inkscape:version="1.4.2 (f4327f4, 2025-05-13)"
   xmlns:inkscape="http://www.inkscape.org/namespaces/inkscape"
   xmlns:sodipodi="http://sodipodi.sourceforge.net/DTD/sodipodi-0.dtd"
   xmlns="http://www.w3.org/2000/svg"
   xmlns:svg="http://www.w3.org/2000/svg">
  <defs
     id="defs1" />
  <sodipodi:namedview
     id="namedview1"
     pagecolor="#ffffff"
     bordercolor="#000000"
     borderopacity="0.25"
     inkscape:showpageshadow="2"
     inkscape:pageopacity="0.0"
     inkscape:pagecheckerboard="0"
     inkscape:deskcolor="#d1d1d1"
     inkscape:zoom="3.8985507"
     inkscape:cx="95.548327"
     inkscape:cy="103.5"
     inkscape:window-width="1920"
     inkscape:window-height="1009"
     inkscape:window-x="892"
     inkscape:window-y="-8"
     inkscape:window-maximized="1"
     inkscape:current-layer="svg1" />
  <path
     fill="#D1D1D2"
     d="m 160.2,0.25 c 14.25,0 23.75,7.65 28.1,18.2 l -11.5,4.7 c -2.75,-7.2 -8.45,-11.35 -16.6,-11.35 -4.65085,-0.03245 -9.10605,1.869158 -12.3,5.25 -4.05,4.5 -5.05,9.3 -5.05,26.25 0,16.95 0.95,21.85 5.05,26.35 3.20656,3.345033 7.66726,5.194593 12.3,5.1 5.18781,0.113521 10.16246,-2.062888 13.6,-5.95 3.05,-3.55 4.2,-7.85 4.2,-13.3 V 50.75 H 161.8 V 39.8 h 28.9 v 12.95 c 0,10.9 -2,17.9 -7.5,23.9 -6.35,6.75 -14.2,9.6 -23,9.6 -8.2292,0.0987 -16.1411,-3.170834 -21.9,-9.05 -8.102,-8.2 -8.101,-17.426 -8.1,-33.368 v -1.164 c -10e-4,-15.943 -0.002,-25.217 8.1,-33.418 5.72158,-5.9285319 13.66307,-9.19215661 21.9,-9 M 58,136 c 10.593964,19.91232 22.996157,38.80851 37.05,56.45 4.075498,4.62372 9.11652,8.29618 14.767,10.758 5.64999,2.46265 11.77179,3.65471 17.933,3.492 3.8876,0.0569 7.75232,-0.60421 11.4,-1.95 v -6.4 C 129.69957,197.33711 121.02596,192.65013 115,185.3 100.80214,169.26351 88.395471,151.72651 78,133 c 19.670476,-4.7095 33.83293,-21.8922 34.7,-42.1 0,-27.65 -21.75,-40.45 -49.55,-40.45 -8.04,0 -15.433,0.226 -22.104,0.43 C 35.562,51.047 30.566,51.2 26.1,51.2 H 0.15 v 7.2 l 9.25,1.65 c 6.45,1.2 10.15,3.9 10.45,19.55 v 97.6 c 0,15.3 -3.7,18.25 -10.1,19.45 L 0.5,198.4 v 7.15 c 6.65,-0.3 18.65,-0.75 29.8,-0.75 6.41,0 13.876,0.248 20.225,0.459 4.697,0.155 8.781,0.291 11.375,0.291 V 198.4 L 49.1,196.65 C 42.4,195.7 38.9,192.5 38.9,177.2 V 136 Z m 0.6,-74.25 c 20.75,0 33.05,10.85 33.05,30.55 0,19.45 -13.35,32.6 -35.25,32.15 -8.237,0 -11.787,-0.278 -17.177,-0.701 L 38.6,123.7 V 61.75 Z"
     id="path1"
     style="fill:#000000;fill-opacity:1"
     sodipodi:nodetypes="cccccscccsccccsccccccccccccccccscsccccscccsccccsccssccccs" />
</svg>
