<svg xmlns:xlink="http://www.w3.org/1999/xlink" width="124" height="24" viewBox="0 0 124 24" fill="none" class="desktop-only" xmlns="http://www.w3.org/2000/svg"><path fill-rule="evenodd" clip-rule="evenodd" d="M113.673 9.45778C113.253 8.71741 112.673 8.14713 111.943 7.74693C111.223 7.34673 110.403 7.13662 109.483 7.13662C108.563 7.13662 107.753 7.34673 106.943 7.76694C106.143 8.17714 105.493 8.78745 104.993 9.60786C104.483 10.4183 104.233 11.4388 104.233 12.6794C104.233 13.8 104.483 14.7604 104.993 15.5508C105.503 16.3212 106.203 16.9115 107.073 17.3217C107.953 17.7219 108.943 17.932 110.063 17.932H113.183C113.733 17.932 114.183 17.4818 114.183 16.9315V15.901C114.183 15.3407 113.733 14.9005 113.183 14.9005H109.743C109.433 14.9005 109.153 14.8605 108.913 14.7904C108.663 14.7304 108.473 14.6204 108.333 14.4703C108.103 14.2102 108.363 13.88 108.703 13.88H113.383C113.843 13.88 114.253 13.5498 114.293 13.0896V13.0396C114.323 12.6994 114.333 12.4093 114.333 12.1491C114.333 11.0986 114.113 10.2082 113.673 9.45778ZM110.443 11.7189H108.493C108.153 11.7189 107.893 11.4288 108.003 11.1086C108.083 10.9185 108.183 10.7584 108.313 10.6184C108.443 10.4883 108.593 10.3782 108.773 10.2982C108.963 10.2182 109.183 10.1681 109.433 10.1681C109.623 10.1681 109.793 10.1982 109.953 10.2582C110.123 10.3082 110.263 10.3882 110.373 10.4983C110.493 10.5984 110.583 10.7084 110.663 10.8485C110.753 10.9685 110.823 11.0986 110.863 11.2487C110.923 11.5088 110.703 11.7189 110.443 11.7189ZM103.323 12.5193C103.033 12.0191 102.603 11.6389 102.053 11.4088C101.513 11.1686 100.873 11.0486 100.123 11.0486H98.7333C98.6033 11.0486 98.4933 10.9986 98.4033 10.8985C98.3233 10.8085 98.2933 10.6984 98.2933 10.5783C98.2933 10.4583 98.3233 10.3482 98.4033 10.2482C98.4933 10.1581 98.6033 10.1081 98.7333 10.1081H101.943C102.493 10.1081 102.943 9.65788 102.943 9.0976V8.31721C102.943 7.76694 102.493 7.30671 101.943 7.30671H97.8633C97.2633 7.30671 96.7033 7.46679 96.2033 7.77694C95.7033 8.07709 95.3033 8.4973 95.0033 9.00756C94.7233 9.50781 94.5833 10.0881 94.5833 10.7084C94.5833 11.5188 94.7333 12.1791 95.0433 12.6894C95.3633 13.1997 95.7933 13.5798 96.3433 13.82C96.8833 14.0501 97.4733 14.1701 98.1333 14.1701H99.6433C99.7433 14.1701 99.8233 14.1901 99.8933 14.2302C99.9533 14.2702 100.003 14.3302 100.043 14.4103C100.083 14.4803 100.103 14.5603 100.103 14.6404C100.103 14.7204 100.083 14.8005 100.043 14.8805C100.003 14.9505 99.9533 15.0106 99.8933 15.0606C99.8233 15.1106 99.7433 15.1306 99.6433 15.1306H95.9633C95.4133 15.1306 94.9633 15.5708 94.9633 16.1411V16.9115C94.9633 17.4618 95.4133 17.922 95.9633 17.922H100.413C101.043 17.922 101.613 17.7719 102.113 17.4518C102.613 17.1416 103.013 16.7214 103.313 16.2012C103.613 15.6909 103.773 15.1106 103.773 14.4803C103.773 13.6699 103.623 13.0196 103.323 12.5193ZM93.1433 7.30671H89.3933C88.4033 7.30671 87.6333 7.59685 87.0733 8.18715C86.5233 8.76744 86.2433 9.56784 86.2433 10.5783V16.8715C86.2433 17.4218 86.6933 17.872 87.2433 17.872H88.9533C89.5033 17.872 89.9533 17.4218 89.9533 16.8715V11.0486C89.9533 10.8185 90.0133 10.6284 90.1433 10.4983C90.2833 10.3482 90.4633 10.2682 90.6833 10.2682H93.1433C93.6933 10.2682 94.1433 9.82797 94.1433 9.26769V8.31721C94.1433 7.76694 93.6933 7.31671 93.1433 7.31671V7.30671ZM84.7133 9.45778C84.2933 8.71741 83.7133 8.14713 82.9833 7.74693C82.2633 7.34673 81.4433 7.13662 80.5233 7.13662C79.6033 7.13662 78.7933 7.34673 77.9833 7.76694C77.1833 8.17714 76.5333 8.78745 76.0333 9.60786C75.5233 10.4183 75.2733 11.4388 75.2733 12.6794C75.2733 13.8 75.5233 14.7604 76.0333 15.5508C76.5433 16.3212 77.2433 16.9115 78.1133 17.3217C78.9933 17.7219 79.9833 17.932 81.1033 17.932H84.2233C84.7733 17.932 85.2233 17.4818 85.2233 16.9315V15.901C85.2233 15.3407 84.7733 14.9005 84.2233 14.9005H80.7833C80.4733 14.9005 80.1933 14.8605 79.9533 14.7904C79.7033 14.7304 79.5133 14.6204 79.3733 14.4703C79.1433 14.2102 79.4033 13.88 79.7433 13.88H84.4233C84.8833 13.88 85.2933 13.5498 85.3333 13.0896V13.0396C85.3633 12.6994 85.3733 12.4093 85.3733 12.1491C85.3733 11.0986 85.1533 10.2082 84.7133 9.45778ZM81.4833 11.7189H79.5333C79.1933 11.7189 78.9333 11.4288 79.0433 11.1086C79.1233 10.9185 79.2233 10.7584 79.3533 10.6184C79.4833 10.4883 79.6333 10.3782 79.8133 10.2982C80.0033 10.2182 80.2233 10.1681 80.4733 10.1681C80.6633 10.1681 80.8333 10.1982 80.9933 10.2582C81.1633 10.3082 81.3033 10.3882 81.4133 10.4983C81.5333 10.5984 81.6233 10.7084 81.7033 10.8485C81.7933 10.9685 81.8633 11.0986 81.9033 11.2487C81.9633 11.5088 81.7433 11.7189 81.4833 11.7189ZM74.5133 7.30671H72.6833C72.2033 7.30671 71.8033 7.63687 71.7033 8.10711L70.4533 14.0401C70.4533 14.0401 70.4233 14.1401 70.3933 14.1801C70.3933 14.2102 70.3633 14.2202 70.3333 14.2202C70.3133 14.2202 70.2833 14.2102 70.2633 14.1801C70.2433 14.1401 70.2333 14.0901 70.2233 14.0401L68.9733 8.10711C68.8733 7.63687 68.4633 7.30671 67.9933 7.30671H66.0833C65.4133 7.30671 64.9333 7.96704 65.1433 8.60736L67.5033 16.0511C67.7033 16.6714 68.0633 17.1316 68.5833 17.4618C69.0933 17.7819 69.6633 17.952 70.3033 17.952C70.9433 17.952 71.5133 17.7819 72.0133 17.4618C72.5333 17.1316 72.8933 16.6714 73.0933 16.0511L75.4633 8.60736C75.6633 7.96704 75.1833 7.30671 74.5133 7.30671ZM62.2133 7.30671C61.1833 7.30671 60.3533 8.13712 60.3533 9.16764V17.3417C60.3533 17.6619 60.6133 17.932 60.9433 17.932H63.4833C63.8033 17.932 64.0633 17.6619 64.0633 17.3417V9.16764C64.0633 8.13712 63.2333 7.30671 62.2133 7.30671ZM60.3733 4.00506C60.2833 4.97554 61.2633 5.76594 62.2333 5.76594C63.2033 5.76594 64.1933 4.97554 64.0833 4.00506C64.0333 3.58485 63.9033 3.13462 63.6033 2.6944C63.2133 2.27419 62.7533 2.06409 62.2133 2.06409C61.6733 2.06409 61.2133 2.27419 60.8233 2.6944C60.5433 3.13462 60.4233 3.58485 60.3733 4.00506ZM58.7333 9.86799C58.2633 9.01756 57.6133 8.34723 56.7833 7.87699C55.9533 7.38675 54.9933 7.13662 53.8833 7.13662C52.7133 7.13662 51.7233 7.39675 50.9133 7.91701C50.1033 8.41726 49.4933 9.0876 49.0733 9.92802C48.6633 10.7584 48.4633 11.6489 48.4633 12.6194C48.4633 13.5098 48.6433 14.3302 49.0033 15.0806C49.3633 15.821 49.8733 16.4213 50.5233 16.8715C51.1833 17.3017 51.9533 17.5218 52.8233 17.5218C53.3133 17.5218 53.7333 17.4618 54.0833 17.3417C54.4433 17.2117 54.7433 17.0516 54.9833 16.8515C55.2433 16.6314 55.4533 16.4113 55.6233 16.1811H55.7433V18.0121C55.7433 18.2322 55.6633 18.3923 55.5233 18.5223C55.3833 18.6524 55.2033 18.7224 54.9633 18.7224H51.2333C50.6833 18.7224 50.2333 19.1726 50.2333 19.7229V21.0636C50.2333 21.6139 50.6833 22.0641 51.2333 22.0641H56.2233C57.2433 22.0641 58.0333 21.7739 58.5933 21.1836C59.1633 20.6034 59.4433 19.813 59.4433 18.8025V12.8395C59.4433 11.7089 59.2033 10.7184 58.7333 9.86799ZM55.4333 13.4898C55.2933 13.7599 55.0933 13.98 54.8333 14.1401C54.5733 14.3102 54.2833 14.3902 53.9633 14.3902C53.6433 14.3902 53.3433 14.3102 53.0733 14.1401C52.8133 13.98 52.6133 13.7599 52.4533 13.4898C52.3133 13.2097 52.2433 12.8895 52.2433 12.5593C52.2433 12.1992 52.3133 11.879 52.4533 11.5989C52.6133 11.3087 52.8133 11.0886 53.0733 10.9285C53.3433 10.7584 53.6433 10.6784 53.9633 10.6784C54.2833 10.6784 54.5733 10.7684 54.8333 10.9485C55.0933 11.1086 55.2933 11.3287 55.4333 11.6189C55.5833 11.899 55.6633 12.2192 55.6633 12.5793C55.6633 12.8995 55.5833 13.2097 55.4333 13.4898ZM48.0233 11.859V16.9315C48.0233 17.4818 47.5733 17.932 47.0233 17.932H45.3033C44.7533 17.932 44.3133 17.4818 44.3133 16.9315V12.1091C44.3133 11.849 44.2533 11.6089 44.1333 11.3988C44.0233 11.1686 43.8533 10.9785 43.6333 10.8485C43.4333 10.6984 43.1833 10.6184 42.8833 10.6184C42.5833 10.6184 42.3233 10.6984 42.0933 10.8485C41.8733 10.9785 41.7033 11.1686 41.5933 11.3988C41.4733 11.6089 41.4133 11.849 41.4133 12.1091V16.9315C41.4133 17.4818 40.9733 17.932 40.4233 17.932H38.7233C38.1733 17.932 37.7233 17.4818 37.7233 16.9315V7.91701C37.7233 7.4868 38.0733 7.13662 38.5033 7.13662H39.8133C40.1333 7.13662 40.4133 7.33672 40.5333 7.61686C41.2433 7.2967 42.0533 7.13662 42.9633 7.13662C44.0033 7.13662 44.9033 7.34673 45.6633 7.74693C46.4233 8.15713 47.0033 8.71741 47.4033 9.43777C47.8133 10.1481 48.0233 10.9485 48.0233 11.859ZM34.8833 7.30671C33.8533 7.30671 33.0233 8.13712 33.0233 9.16764V17.3417C33.0233 17.6619 33.2933 17.932 33.6133 17.932H36.1533C36.4733 17.932 36.7333 17.6619 36.7333 17.3417V9.16764C36.7333 8.13712 35.9033 7.30671 34.8833 7.30671ZM34.9033 5.76594C33.9333 5.76594 32.9433 4.97554 33.0433 4.00506C33.0833 3.58485 33.2033 3.13462 33.4933 2.6944C33.8833 2.27419 34.3433 2.06409 34.8833 2.06409C35.4233 2.06409 35.8833 2.27419 36.2733 2.6944C36.5733 3.13462 36.7033 3.58485 36.7533 4.00506C36.8633 4.97554 35.8733 5.76594 34.9033 5.76594ZM31.5133 9.24768C31.1833 8.53732 30.7033 7.99705 30.0833 7.61686C29.4833 7.23667 28.7633 7.04658 27.9433 7.04658C27.5033 7.04658 27.0633 7.12662 26.6333 7.26669C26.1933 7.40676 25.7933 7.60686 25.4333 7.87699V3.97504C25.4333 3.42477 24.9833 2.97454 24.4333 2.97454H22.7433C22.1933 2.97454 21.7433 3.42477 21.7433 3.97504V16.9315C21.7433 17.4918 22.1933 17.932 22.7433 17.932H24.4333C24.9833 17.932 25.4333 17.4918 25.4333 16.9315V12.0991C25.4333 11.7689 25.4933 11.4888 25.6233 11.2587C25.7633 11.0186 25.9433 10.8385 26.1633 10.7084C26.3933 10.5883 26.6433 10.5283 26.9033 10.5283C27.1433 10.5283 27.3733 10.5984 27.5933 10.7284C27.8133 10.8585 27.9833 11.0286 28.1133 11.2587C28.2533 11.4888 28.3333 11.7789 28.3333 12.1191V16.9315C28.3333 17.4918 28.7733 17.932 29.3233 17.932H31.0433C31.5933 17.932 32.0333 17.4918 32.0333 16.9315V11.7689C32.0333 10.7884 31.8633 9.94803 31.5133 9.24768ZM20.3133 2.97454H11.3333C10.7833 2.97454 10.3333 3.42477 10.3333 3.97504V5.54583C10.3333 6.10611 10.3333 7.05658 11.3333 7.05658H12.3233C12.8733 7.05658 13.7933 6.99655 13.7933 7.54683V16.9315C13.7933 17.4818 14.2433 17.932 14.7933 17.932H16.9233C17.4733 17.932 17.9233 17.4818 17.9233 16.9315V7.54683C17.9233 6.99655 18.7433 7.05658 19.2933 7.05658H20.3133C21.2933 7.05658 21.3033 6.10611 21.3033 5.54583V3.97504C21.3033 3.42477 20.8633 2.97454 20.3133 2.97454Z" fill="#FFFFFF"></path></svg>