<svg xmlns="http://www.w3.org/2000/svg" viewBox="0 0 184 184" width="184" height="184" fill="currentColor">
  <path d="
    M 96 8
    C 47.384 8 8 47.384 8 96
    c 0 38.936 25.192 71.832 60.168 83.488 4.4.768 6.048-1.864 6.048-4.176
    0-2.096-.104-9.024-.104-16.392
    -22.112 4.072-27.832-5.392-29.592-10.336-.992-2.536-5.28-10.344-9.016-12.432
    -3.08-1.656-7.488-5.72-.112-5.832
    6.928-.112 11.88 6.376 13.528 9.024
    7.92 13.304 20.568 9.568 25.632 7.256
    .768-5.72 3.08-9.568 5.608-11.768
    -19.584-2.2-40.04-9.792-40.04-43.456
    0-9.568 3.408-17.488 9.024-23.648
    -.888-2.2-3.968-11.216.88-23.32
    0 0 7.368-2.304 24.192 9.024
    a 81.544 81.544 0 0 1 22 -2.968
    c 7.488 0 14.968.984 22 2.968
    16.832-11.44 24.2-9.024 24.2-9.024
    .104 1.512.488 2.632.888 3.656
    .888 2.2 1.768 4.216 2.256 6.112
    .888 3.08 1.48 5.696 1.48 8.08
    0 33.776-20.568 41.256-40.152 43.456
    3.192 2.752 5.944 8.032 5.944 16.28
    0 11.768-.112 21.232-.112 24.2
    0 2.312 1.648 5.056 6.048 4.176
    C 158.808 167.832 184 134.832 184 96
    c 0-48.616-39.384-88-88-88
    Z
  "></path>
</svg>
