<svg xmlns:xlink="http://www.w3.org/1999/xlink" xmlns="http://www.w3.org/2000/svg"   fill="none" viewBox="0 0 32 32" aria-hidden="true" focusable="false" width="1"  height="1" ><path fill="#39393A" d="M13.528 4.33a2.667 2.667 0 0 1 4.944 0c3.955 1.084 6.861 4.704 6.861 9.003v6.263l2.443 3.664a1.333 1.333 0 0 1-1.11 2.073H20.62a4.668 4.668 0 0 1-9.238 0H5.333a1.333 1.333 0 0 1-1.11-2.073l2.444-3.664v-6.263a9.336 9.336 0 0 1 6.861-9.002Zm.586 21.003a2 2 0 0 0 3.772 0h-3.772ZM16 6.667a6.667 6.667 0 0 0-6.667 6.666V20c0 .263-.078.52-.224.74l-1.284 1.927h16.35l-1.284-1.928a1.333 1.333 0 0 1-.224-.74v-6.666A6.667 6.667 0 0 0 16 6.666Z"></path></svg>