<?xml version="1.0" encoding="UTF-8" standalone="no"?>
<!-- Created with Inkscape (http://www.inkscape.org/) -->

<svg
   width="210mm"
   height="297mm"
   viewBox="0 0 210 297"
   version="1.1"
   id="svg1"
   xml:space="preserve"
   inkscape:version="1.4.2 (f4327f4, 2025-05-13)"
   sodipodi:docname="drawing.svg"
   xmlns:inkscape="http://www.inkscape.org/namespaces/inkscape"
   xmlns:sodipodi="http://sodipodi.sourceforge.net/DTD/sodipodi-0.dtd"
   xmlns="http://www.w3.org/2000/svg"
   xmlns:svg="http://www.w3.org/2000/svg"><sodipodi:namedview
     id="namedview1"
     pagecolor="#ffffff"
     bordercolor="#000000"
     borderopacity="0.25"
     inkscape:showpageshadow="2"
     inkscape:pageopacity="0.0"
     inkscape:pagecheckerboard="0"
     inkscape:deskcolor="#d1d1d1"
     inkscape:document-units="mm"
     inkscape:zoom="256"
     inkscape:cx="397.2207"
     inkscape:cy="560.69727"
     inkscape:window-width="1920"
     inkscape:window-height="1009"
     inkscape:window-x="892"
     inkscape:window-y="-8"
     inkscape:window-maximized="1"
     inkscape:current-layer="layer1" /><defs
     id="defs1" /><g
     inkscape:label="Layer 1"
     inkscape:groupmode="layer"
     id="layer1"><g
       style="fill:none"
       id="g1"
       transform="matrix(0.00826823,0,0,0.00826823,104.90732,148.29896)"><path
         fill="#131314"
         d="m 24.424,24.42 h -3.547 v -5.547 c 0,-1.32 -0.027,-3.026 -1.84,-3.026 -1.84,0 -2.133,1.44 -2.133,2.933 v 5.64 H 13.357 V 13.007 h 3.4 v 1.56 h 0.053 a 3.724,3.724 0 0 1 3.36,-1.84 c 3.587,0 4.254,2.36 4.254,5.44 z M 9.357,11.447 A 2.063,2.063 0 0 1 7.304,9.393 c 0,-1.12 0.933,-2.053 2.053,-2.053 1.133,0 2.053,0.933 2.053,2.053 0.014,1.12 -0.92,2.054 -2.053,2.054 z M 11.13,24.42 H 7.584 V 13.007 H 11.13 Z M 26.184,4.047 H 5.797 a 1.75,1.75 0 0 0 -1.76,1.72 v 20.466 a 1.75,1.75 0 0 0 1.76,1.72 h 20.387 c 0.96,0.014 1.76,-0.76 1.773,-1.72 V 5.767 a 1.753,1.753 0 0 0 -1.773,-1.72 z"
         id="path1" /></g></g></svg>
