<svg xmlns:xlink="http://www.w3.org/1999/xlink" xmlns="http://www.w3.org/2000/svg"   fill="none" viewBox="0 0 32 32" focusable="false" class="chakra-icon css-1gm3tio" width="1"  height="1" ><path fill="#131314" d="M29.32 13.507a1.321 1.321 0 0 0-.667-1.334l-12-6.666a1.315 1.315 0 0 0-1.293 0l-12 6.666c-.213.12-.4.307-.52.52-.36.64-.133 1.454.507 1.8l4.706 2.614c0 .04-.026.066-.026.106v5.827c0 2.56 4.013 3.693 8 3.693 3.986 0 8-1.146 8-3.693v-5.827c0-.053-.027-.093-.027-.146l2.667-1.48v4.386c0 .734.6 1.334 1.333 1.334s1.333-.6 1.333-1.334v-6.48h-.013v.014Zm-7.947 9.4c-.4.426-2.28 1.16-5.333 1.16-3.053 0-4.933-.747-5.333-1.16v-4.32l4.653 2.586c.4.227.893.227 1.293 0l4.72-2.626v4.36ZM16 18.48l-9.253-5.147L16 8.187l9.253 5.146L16 18.48Z"></path></svg>