<?xml version='1.0' encoding='UTF-8'?>
<svg xmlns:xlink="http://www.w3.org/1999/xlink" xmlns="http://www.w3.org/2000/svg" width="500.0" height="60.61" viewBox="0 0 500.0 60.61" fill="none" aria-label="Thingiverse Club Logo"><g transform="scale(3.0303030303030303)"><path d="M43.736 5.086q1.668 0 2.909.732a5 5 0 0 1 1.957 1.995q.718 1.281.718 2.97v5.961q0 1.506-.853 2.381-.854.875-2.385.875h-5.01a1 1 0 0 1-1-1v-1.337a1 1 0 0 1 1-1h3.75q.35 0 .562-.203.213-.183.214-.509v-1.83h-.117a3.8 3.8 0 0 1-.64.67q-.37.305-.911.488-.525.184-1.26.184-1.318 0-2.308-.651a4.5 4.5 0 0 1-1.53-1.79q-.544-1.12-.544-2.462 0-1.445.62-2.686a4.83 4.83 0 0 1 1.842-2.015q1.222-.773 2.986-.773m14.14 0a1 1 0 0 1 .979.794l1.287 6.103q.019.082.039.143.038.04.077.041.039 0 .058-.041a.5.5 0 0 0 .058-.143l1.287-6.103a1 1 0 0 1 .979-.794h1.838a1 1 0 0 1 .954 1.3l-2.402 7.612q-.31.915-1.086 1.403a3.1 3.1 0 0 1-1.725.489 3.17 3.17 0 0 1-1.726-.489q-.775-.488-1.085-1.403l-2.401-7.611a1 1 0 0 1 .953-1.301zm-25.111 0q1.57 0 2.713.61t1.746 1.69q.62 1.058.62 2.42v5.063a1 1 0 0 1-1 1H35.12a1 1 0 0 1-1-1v-4.818q0-.387-.174-.712a1.35 1.35 0 0 0-.505-.55 1.26 1.26 0 0 0-.755-.224 1.44 1.44 0 0 0-.795.224q-.33.204-.504.55a1.5 1.5 0 0 0-.175.712v4.818a1 1 0 0 1-1 1H28.51a1 1 0 0 1-1-1V9.807q0-1.364.659-2.421a4.56 4.56 0 0 1 1.842-1.69q1.183-.61 2.754-.61m37.727 0q1.377 0 2.462.61a4.33 4.33 0 0 1 1.745 1.71q.66 1.118.66 2.686 0 .386-.04.894 0 .022-.003.043c-.039.466-.446.791-.914.791h-4.7c-.34 0-.598.335-.374.591q.214.225.582.325.369.102.834.102h3.46a1 1 0 0 1 1 1v1.031a1 1 0 0 1-1 1h-3.13q-1.687 0-3.006-.61a5 5 0 0 1-2.093-1.77q-.757-1.18-.757-2.869 0-1.851.757-3.072.756-1.22 1.958-1.831a5.5 5.5 0 0 1 2.56-.631m29.085 0q1.377 0 2.463.61a4.3 4.3 0 0 1 1.744 1.71q.66 1.118.659 2.686 0 .386-.038.894l-.004.043c-.039.466-.445.791-.913.791h-4.7c-.34 0-.598.334-.374.591q.213.225.581.325.369.102.834.102h3.46a1 1 0 0 1 1 1v1.031a1 1 0 0 1-1 1h-3.13q-1.687 0-3.006-.61a5 5 0 0 1-2.093-1.77q-.757-1.18-.756-2.869 0-1.851.756-3.072.756-1.22 1.958-1.831a5.5 5.5 0 0 1 2.56-.631m-74.926.163c1.028 0 1.862.834 1.862 1.861v8.093a.586.586 0 0 1-.586.585h-2.552a.585.585 0 0 1-.585-.585V7.11c0-1.028.834-1.861 1.861-1.861m27.445 0c1.028 0 1.86.833 1.861 1.861v8.093a.586.586 0 0 1-.586.585h-2.55a.586.586 0 0 1-.587-.585V7.11c0-1.028.834-1.861 1.862-1.861M14.162.925a1 1 0 0 1 1 1v3.903a3.9 3.9 0 0 1 1.201-.61q.66-.225 1.32-.224 1.24 0 2.151.57.931.57 1.436 1.627.522 1.059.523 2.523v5.063a1 1 0 0 1-1 1H19.07a1 1 0 0 1-1-1V10.06q0-.51-.214-.855a1.34 1.34 0 0 0-.523-.528 1.3 1.3 0 0 0-.698-.204q-.388 0-.737.183-.33.183-.543.55-.193.345-.193.833v4.738a1 1 0 0 1-1 1h-1.704a1 1 0 0 1-1-1V1.925a1 1 0 0 1 1-1zm-4.145 0a1 1 0 0 1 1 1v1.572a1 1 0 0 1-1 1H8.619a1 1 0 0 0-1 1v9.225a1 1 0 0 1-1 1H4.474a1 1 0 0 1-1-1V5.497a1 1 0 0 0-1-1H1a1 1 0 0 1-1-1V1.925a1 1 0 0 1 1-1zm81.985 4.16a1 1 0 0 1 1 1v.769a1 1 0 0 1-1 1h-3.228a.44.44 0 0 0-.329.142.5.5 0 0 0-.116.325.5.5 0 0 0 .116.325q.135.143.33.143h1.396q1.125 0 1.938.366.834.345 1.28 1.099.447.753.446 1.953 0 .936-.465 1.709-.446.774-1.202 1.241a3.2 3.2 0 0 1-1.706.468h-4.468a1 1 0 0 1-1-1v-.767a1 1 0 0 1 1-1h3.692q.155 0 .252-.06a.7.7 0 0 0 .155-.184.6.6 0 0 0 .058-.244.44.44 0 0 0-.058-.223.43.43 0 0 0-.154-.184.47.47 0 0 0-.253-.06h-1.512a4.6 4.6 0 0 1-1.804-.346 2.96 2.96 0 0 1-1.299-1.12q-.465-.773-.465-1.973 0-.936.426-1.689a3.3 3.3 0 0 1 1.202-1.22 3.1 3.1 0 0 1 1.668-.47zm-8.836 0a1 1 0 0 1 1 1v.951a1 1 0 0 1-1 1h-2.473q-.33 0-.543.224-.194.203-.194.55v5.795a1 1 0 0 1-1 1h-1.723a1 1 0 0 1-1-1V8.343q0-1.506.834-2.381t2.328-.875zM43.814 8.627q-.485 0-.892.245a1.8 1.8 0 0 0-.62.671 2.1 2.1 0 0 0-.214.956q0 .51.214.937.232.405.62.65.406.244.892.244.484 0 .873-.244.387-.245.6-.65.233-.427.233-.916 0-.53-.233-.957a1.64 1.64 0 0 0-.6-.671 1.5 1.5 0 0 0-.873-.265m26.62-.508q-.369 0-.66.122a1.46 1.46 0 0 0-.775.814c-.107.315.157.61.49.61h1.965c.261 0 .48-.215.414-.468a1.2 1.2 0 0 0-.193-.407 1.2 1.2 0 0 0-.291-.346 1.1 1.1 0 0 0-.427-.244 1.6 1.6 0 0 0-.523-.08m29.085 0q-.369 0-.66.122a1.47 1.47 0 0 0-.775.814c-.107.315.158.61.491.61h1.964c.261 0 .481-.215.415-.468a1.2 1.2 0 0 0-.194-.407 1.2 1.2 0 0 0-.291-.346 1.1 1.1 0 0 0-.426-.244 1.6 1.6 0 0 0-.524-.08M24.65 0q.814 0 1.396.63c.3.441.436.892.485 1.313.113.967-.882 1.756-1.855 1.756-.974 0-1.964-.786-1.87-1.755.042-.42.164-.871.448-1.313Q23.837 0 24.65 0m27.445 0q.814 0 1.396.63c.301.441.435.892.485 1.313.112.967-.883 1.756-1.856 1.756s-1.964-.786-1.869-1.755c.041-.42.165-.871.448-1.313Q51.282 0 52.096 0" fill="#12226B"/><path d="M145.471 15.941q-1.84 0-3.245-.757a5.4 5.4 0 0 1-2.185-2.12q-.78-1.363-.779-3.202V1.135a1 1 0 0 1 1-1h2.153a1 1 0 0 1 1 1v3.102c0 .373.567.647.887.455q.433-.26.952-.368.519-.13 1.104-.13 1.492 0 2.704.714a5.06 5.06 0 0 1 1.903 1.99q.714 1.277.714 3.007 0 1.342-.454 2.445a5.6 5.6 0 0 1-1.255 1.925 5.6 5.6 0 0 1-1.968 1.233q-1.125.433-2.531.433m0-3.634q.584 0 1.016-.282.455-.281.693-.778.26-.52.259-1.169 0-.627-.259-1.103a1.85 1.85 0 0 0-.693-.757 1.8 1.8 0 0 0-1.016-.281q-.562 0-1.017.28a2 2 0 0 0-.714.758 2.4 2.4 0 0 0-.238 1.103q0 .649.238 1.169.26.496.714.778t1.017.282m-12.86 3.634c-2.192 0-2.192-.216-3.072-.649q-1.32-.67-2.055-1.795-.736-1.147-.736-2.596V6.454a2 2 0 0 1 2-2h.132a2 2 0 0 1 2 2v4.187q0 .39.195.757t.562.606q.39.216.887.216.498 0 .844-.216.368-.238.562-.606.195-.367.195-.757V6.454a2 2 0 0 1 2-2h.154a2 2 0 0 1 2 2V10.9q0 1.449-.693 2.596-.67 1.125-1.947 1.795c-.851.433-.871.65-3.028.65m-9.857-.001a1 1 0 0 1-1-1V1.06a1 1 0 0 1 1-1h2.013a1 1 0 0 1 1 1v13.88a1 1 0 0 1-1 1zm-4.615.001c-2.143 0-2.295-.143-3.249-.428q-1.43-.428-2.416-1.235a5.5 5.5 0 0 1-1.509-1.902q-.522-1.097-.522-2.435 0-1.337.522-2.434a5.5 5.5 0 0 1 1.509-1.903q1.006-.806 2.416-1.234c.954-.286 1.116-.429 3.249-.429h.515a1.533 1.533 0 1 1 0 3.068h-.38c-.593 0-1.218-.007-1.669.153s-.722.3-1.018.585a2.7 2.7 0 0 0-.677.977c-.142.377-.276.783-.276 1.217s.134.84.276 1.217q.232.566.677.995.444.411 1.121.651t1.566.24h.466a1.448 1.448 0 0 1 0 2.897z" fill="#2B52FE"/></g></svg>