<svg xmlns:xlink="http://www.w3.org/1999/xlink" xmlns="http://www.w3.org/2000/svg" aria-labelledby="title" viewBox="0 0 960 123" width="960" height="123" aria-label="ResearchGate"><path fill="#131314" d="M65.3 112c-9.6-12.2-18.6-25-25.6-39H26.3v28.8c0 10.2 2.6 12.8 7 13.4l9 1.3v5.1c-4.5 0-14.1-.6-21.8-.6s-16 0-20.5.6v-5.1l6.4-1.3c4.5-.6 7-3.2 7-13.4V33.9c0-10.9-2.6-12.8-7-13.4L0 19.2v-5.1h17.9c7 0 15.4-.6 25.6-.6 19.2 0 33.9 9 33.9 28.2-.6 14.1-10.2 25.6-24.3 28.8 7 12.8 16 25 25.6 36.5 4.5 5.1 10.2 8.3 16.6 9v4.5c-1.9 1.3-4.5 1.3-7 1.3-8.9.4-17.3-3.4-23-9.8m-1.9-69.1c0-13.4-8.3-21.1-23-21.1H26.3v42.9c3.8.6 6.4.6 12.2.6 15.3 0 24.9-9 24.9-22.4m35.2 37.7c0-26.2 15.4-44.8 37.8-44.8C153 35.2 167 48 167.7 64.6v9h-55v5.1c0 18.6 9 33.9 28.2 33.9 7.7 0 15.4-1.3 22.4-5.1l.6 4.5c-3.2 5.1-14.1 10.2-26.2 10.2-25.7.7-39.1-16-39.1-41.6m51.8-13.4c3.2 0 3.8-1.3 3.8-3.8 1.3-10.2-6.4-19.2-16.6-20.5h-1.3c-14.1 0-21.8 12.8-23 24.3zm31.4 51.8c0-7.7 0-14.7-.6-22.4h6.4c1.3 12.2 5.1 18.6 19.8 18.6 10.9 0 17.9-5.8 17.9-15.4 0-21.1-42.9-10.9-42.9-41.6 0-13.4 12.2-22.4 28.8-22.4 7.7 0 15.4 1.9 22.4 4.5v19.2h-6.4c.6-8.3-5.1-16-13.4-17.3H210c-10.2 0-16.6 4.5-16.6 12.8 0 19.8 42.9 11.5 42.9 42.2 0 13.4-12.8 25-29.4 25-8.5.7-16.8-.6-25.1-3.2m69.7-38.4c0-26.2 15.4-44.8 37.8-44.8 16.6-.6 30.7 12.2 31.4 28.8v9h-55v5.1c0 18.6 9 33.9 28.2 33.9 7.7 0 15.4-1.3 22.4-5.1l.6 4.5c-3.2 5.1-14.1 10.2-26.2 10.2-25.7.7-39.2-16-39.2-41.6m51.2-13.4c3.2 0 3.8-1.3 3.8-3.8 1.3-10.2-6.4-19.2-16.6-20.5h-1.3c-14.1 0-21.8 12.8-23 24.3zm27.5 34.6c0-16 14.1-26.2 35.8-26.2h9V66c0-13.4-5.8-19.8-19.2-19.8-6.4 0-13.4 1.3-19.2 4.5l-.6-5.8c6.4-5.8 14.7-9.6 23.7-9.6 19.2 0 28.8 10.9 28.8 26.9 0 13.4-.6 26.2-.6 41.6 0 8.3 3.2 10.9 13.4 10.9v4.5c-3.8 1.9-8.3 3.2-12.8 3.2-6.4.6-11.5-3.8-12.2-9.6v-1.9c-5.1 7-13.4 11.5-22.4 11.5-11.5.6-21.8-7.7-22.4-19.2-1.3-.2-1.3-.8-1.3-1.4m44.2 3.2c0-5.8 0-18.6.6-22.4h-6.4c-17.3 0-25.6 6.4-25.6 16.6 0 7 5.1 12.8 12.2 13.4h1.3c7 0 13.4-2.5 17.9-7.6m39 10.8 5.8-.6c3.8-.6 5.8-1.9 5.8-13.4V59.5c0-8.3 0-10.9-10.9-12.8v-3.8c8.3-1.9 16-5.1 23.7-8.3v12.8c5.1-6.4 12.8-10.9 21.1-12.2 2.6 0 5.1.6 7.7 1.3L465.3 48c-3.2-1.3-6.4-1.9-9.6-1.3-6.4 0-12.8 2.6-17.9 6.4v48c0 12.2 1.9 12.8 5.8 13.4l7.7.6v4.5c-4.5 0-13.4-.6-19.8-.6s-12.8.6-17.3.6zM473 80.6c0-25.6 18.6-44.8 41-44.8 7.7 0 15.4 1.3 22.4 3.8-.6 5.8-.6 14.1-.6 19.2h-6.4c-.6-9.6-4.5-16-16.6-16-14.7 0-26.9 12.8-26.9 35.8s12.2 33.9 30.1 33.9c7 0 14.1-1.9 19.8-5.1l.6 4.5c-6.4 7.7-15.4 11.5-25 10.9-23.7.1-38.4-16.6-38.4-42.2m77.4 35.2 5.8-.6c3.8-.6 5.8-1.9 5.8-13.4V26.2c0-9 0-10.9-10.9-12.8V9c8.3-2.6 16-5.1 23.7-9v46.7c6.4-6.4 15.4-10.2 24.3-10.9 19.8 0 25.6 12.2 25.6 28.8v37.1c0 12.2 1.9 12.8 5.8 13.4l5.8.6v4.5c-4.5 0-11.5-.6-17.9-.6s-12.8 0-17.3.6v-4.5l5.8-.6c3.8-.6 5.8-1.9 5.8-13.4V66.6c0-12.8-3.2-21.1-17.9-21.1-7 0-14.1 2.6-19.8 6.4v49.3c0 12.2 1.9 12.8 5.8 13.4l5.8.6v4.5c-4.5 0-11.5-.6-17.9-.6s-12.8 0-17.3.6zm97.3-46.7c0-32 21.8-57 53.1-57 10.2 0 20.5 1.9 30.1 5.1 0 7.7.6 15.4 1.3 24.3h-6.4c0-12.2-10.2-22.4-23-22.4h-1.9c-23 0-37.8 19.8-37.8 48s14.7 48 37.8 48c7 .6 14.1-1.3 20.5-3.8V92.2c0-10.2-2.6-12.8-7-13.4l-6.4-1.3v-5.1c4.5 0 10.9.6 20.5.6 7.7 0 13.4 0 17.3-.6v5.1l-5.1 1.3c-5.1 1.3-6.4 3.8-6.4 13.4v25c-11.5 3.8-23 5.8-35.2 5.8-32.9-.1-51.4-21.9-51.4-53.9m107.5 32.7c0-16 14.1-26.2 35.8-26.2h9V66c0-13.4-5.8-19.8-19.2-19.8-6.4 0-13.4 1.3-19.2 4.5l-.6-5.8c6.4-5.8 14.7-9.6 23.7-9.6 19.2 0 28.8 10.9 28.8 26.9 0 13.4-.6 26.2-.6 41.6 0 8.3 3.2 10.9 13.4 10.9v4.5c-3.8 1.9-8.3 3.2-12.8 3.2-6.4.6-11.5-3.2-12.8-9.6v-1.9c-5.1 7-13.4 11.5-22.4 11.5-11.5.6-21.8-7.7-22.4-19.2-.7-.2-.7-.8-.7-1.4M800 105c0-5.8 0-18.6.6-22.4h-6.4c-17.3 0-25.6 6.4-25.6 16.6 0 7 5.1 12.8 12.2 13.4h1.3c6.4 0 12.8-2.5 17.9-7.6m45.4-2.6v-57h-10.2v-5.8c9-4.5 15.4-12.8 17.3-22.4h5.8V37h25v8.3h-25v54.4c0 10.2 3.2 14.7 11.5 14.7 4.5 0 8.3-.6 12.2-1.9l.6 3.2c-5.1 5.1-11.5 7.7-18.6 7-14.1.2-18.6-6.2-18.6-20.3m45.5-21.8c0-26.2 15.4-44.8 37.8-44.8 16.6-.6 30.7 12.8 31.4 29.4v2.6c0 1.9 0 3.8-.6 5.8h-55v5.1c0 18.6 9 33.9 28.2 33.9 7.7 0 15.4-1.3 22.4-5.1l.6 4.5c-3.2 5.1-14.1 10.2-26.2 10.2-25.2.7-38.6-16-38.6-41.6m51.2-13.4c2.6 0 3.8-1.3 3.8-3.8 1.3-10.2-6.4-19.2-16.6-20.5H928c-14.1 0-21.8 12.8-23 24.3z"></path></svg>