<?xml version='1.0' encoding='UTF-8'?>
<svg xmlns:xlink="http://www.w3.org/1999/xlink" xmlns="http://www.w3.org/2000/svg" fill="none" viewBox="0 0 200.0 200.0" aria-hidden="true" focusable="false" width="200.0" height="200.0"><path fill="#39393A" d="M2.667 8a2.667 2.667 0 0 1 2.667-2.667h21.333A2.667 2.667 0 0 1 29.334 8v14.667a2.667 2.667 0 0 1-2.667 2.666h-6.114l-3.61 3.61c-.52.52-1.365.52-1.886 0l-3.609-3.61H5.334a2.667 2.667 0 0 1-2.667-2.666V8Zm24 0H5.334v14.667H12c.354 0 .693.14.943.39L16 26.115l3.058-3.058c.25-.25.589-.39.942-.39h6.667V8ZM8 12.667c0-.736.597-1.333 1.334-1.333h13.333a1.333 1.333 0 0 1 0 2.666H9.334A1.333 1.333 0 0 1 8 12.667ZM8 18c0-.736.597-1.333 1.334-1.333h8a1.333 1.333 0 0 1 0 2.666h-8A1.333 1.333 0 0 1 8 18Z" transform="scale(6.25)"/></svg>