<?xml version='1.0' encoding='UTF-8'?>
<svg xmlns:xlink="http://www.w3.org/1999/xlink" xmlns="http://www.w3.org/2000/svg" aria-hidden="true" fill="currentColor" height="200.0" focusable="false" viewBox="0 0 200.0 200.0" width="200.0"><circle cx="12" cy="9" r="1" fill="#8B91A3" transform="scale(8.333333333333334)"/><path d="M12,2A7,7,0,0,0,5,9c0,3.6,5.6,10.8,6.2,11.6l.8,1,.8-1c.6-.8,6.2-8,6.2-11.6A7,7,0,0,0,12,2Zm0,16.3C9.8,15.4,7,10.9,7,9A5,5,0,0,1,17,9C17,10.9,14.2,15.4,12,18.3Z" fill="#8B91A3" transform="scale(8.333333333333334)"/></svg>