<?xml version='1.0' encoding='UTF-8'?>
<svg xmlns:xlink="http://www.w3.org/1999/xlink" xmlns="http://www.w3.org/2000/svg" fill="none" viewBox="0 0 200.0 200.0" focusable="false" class="chakra-icon css-1gm3tio" width="200.0" height="200.0"><path fill="#131314" d="M26.667 9.334h-4V6.667c0-.733-.6-1.333-1.333-1.333H10.667c-.733 0-1.333.6-1.333 1.333v2.667h-4A2.675 2.675 0 0 0 2.667 12v12c0 1.32.96 2.413 2.227 2.627v.04h22.213v-.04A2.665 2.665 0 0 0 29.334 24V12c0-1.466-1.2-2.666-2.667-2.666ZM12 8h8v1.334h-8V8Zm14.667 4v1.747c-3.107 2.226-6.827 3.493-10.64 3.573a19.036 19.036 0 0 1-10.693-3.573V12h21.333Zm0 12H5.334v-7.093c3.213 1.907 6.866 3 10.693 3.08 3.787-.08 7.44-1.16 10.64-3.08V24Z" transform="scale(6.25)"/></svg>